<svg t="1573810163412" class="icon" viewBox="0 0 1088 1024" version="1.1" xmlns="http://www.w3.org/2000/svg" p-id="5263" width="200" height="200"><path d="M576 192c213.44 0 394.24 198.528 455.232 273.92a44.928 44.928 0 0 1 0 57.28c-60.992 75.392-241.792 273.92-455.232 273.92-213.44 0-394.24-198.528-455.232-273.92a44.928 44.928 0 0 1 0-57.28C181.76 390.528 362.56 192 576 192z m0 69.76c-171.968 0-328.64 162.944-388.48 232.768 59.84 69.824 216.512 232.768 388.48 232.768 171.968 0 328.64-162.944 388.48-232.768-59.84-69.76-216.512-232.704-388.48-232.704z m0 93.12A139.648 139.648 0 1 1 576 634.24a139.648 139.648 0 0 1 0-279.296z m0 69.824a69.76 69.76 0 1 0 0 139.648 69.76 69.76 0 0 0 0-139.648z" p-id="5264"></path></svg>